<svg xmlns="http://www.w3.org/2000/svg" version="1.1" xmlns:xlink="http://www.w3.org/1999/xlink" width="1500" height="1500" viewBox="0 0 1500 1500"><rect width="1500" height="1500" x="0" y="0" id="background" stroke="transparent" fill="#e5e5e5"></rect><svg xml:space="preserve" width="1000" height="1000" data-version="2" data-id="lg_04i26KMR2gt0yTCpxy" viewBox="0 0 568 163" x="250" y="250"><rect width="100%" height="100%" fill="transparent"></rect><path fill="#2e2e2e" d="m203.895 136.247-4.73 13.39-5.41-14.3-5.3 14.3-4.84-13.39h-2.47l7.15 19.11 5.46-14.14 5.46 14.14 7.15-19.11z"></path><rect width="25.22" height="20.02" x="-12.61" y="-10.01" fill="none" rx="0" ry="0" transform="translate(194.25 145.85)"></rect><path fill="#2e2e2e" d="M210.655 154.447v-20.28h-2.08v20.28zm5.59-7.28v7.28h2.08v-7.54q0-1.56-.5-2.6-.51-1.04-1.43-1.56-.93-.52-2.17-.52-1.25 0-2.2.65-.95.65-1.5 1.75-.54 1.11-.54 2.54h.67q0-.86.38-1.53.38-.68 1.07-1.07.69-.39 1.6-.39 1.27 0 1.91.75.63.76.63 2.24"></path><rect width="9.75" height="20.28" x="-4.88" y="-10.14" fill="none" rx="0" ry="0" transform="translate(213.95 144.8)"></rect><path fill="#2e2e2e" d="M226.855 154.707q1.93 0 3.34-.77 1.42-.76 2.36-2.27l-1.69-1.07q-.65 1.09-1.59 1.63-.94.53-2.16.53-1.22 0-2.08-.52-.86-.52-1.3-1.51-.44-.99-.44-2.39.03-1.38.48-2.33.46-.95 1.3-1.45.85-.51 2.04-.51 1.02 0 1.77.44t1.18 1.22q.43.78.43 1.85 0 .18-.08.45-.07.28-.15.41l.83-1.2h-8.58v1.77h10.22q0-.05.01-.25.01-.19.01-.37 0-1.9-.67-3.28-.68-1.38-1.94-2.12-1.26-.74-3.03-.74-1.77 0-3.11.78-1.33.78-2.08 2.18-.74 1.41-.74 3.28 0 1.85.72 3.25.71 1.4 2 2.2 1.29.79 2.95.79"></path><rect width="11.57" height="12.48" x="-5.79" y="-6.24" fill="none" rx="0" ry="0" transform="translate(227.47 148.97)"></rect><path fill="#2e2e2e" d="M237.695 154.447v-11.96h-2.08v11.96zm3.62-9.67 1.14-1.72q-.47-.49-1.03-.66-.55-.17-1.2-.17-.84 0-1.64.65-.81.65-1.32 1.75-.5 1.11-.5 2.54h.93q0-.86.17-1.53.17-.68.61-1.07.45-.39 1.23-.39.52 0 .85.14.34.15.76.46"></path><rect width="6.84" height="12.22" x="-3.42" y="-6.11" fill="none" rx="0" ry="0" transform="translate(239.53 148.84)"></rect><path fill="#2e2e2e" d="M249.165 154.707q1.92 0 3.34-.77 1.42-.76 2.35-2.27l-1.69-1.07q-.65 1.09-1.58 1.63-.94.53-2.16.53-1.22 0-2.08-.52-.86-.52-1.3-1.51-.44-.99-.44-2.39.02-1.38.48-2.33.45-.95 1.3-1.45.84-.51 2.04-.51 1.01 0 1.77.44.75.44 1.18 1.22.43.78.43 1.85 0 .18-.08.45-.08.28-.15.41l.83-1.2h-8.58v1.77h10.22q0-.05.01-.25.01-.19.01-.37 0-1.9-.67-3.28-.68-1.38-1.94-2.12-1.26-.74-3.03-.74-1.77 0-3.11.78-1.34.78-2.08 2.18-.74 1.41-.74 3.28 0 1.85.72 3.25.71 1.4 2 2.2 1.29.79 2.95.79"></path><rect width="11.57" height="12.48" x="-5.79" y="-6.24" fill="none" rx="0" ry="0" transform="translate(249.78 148.97)"></rect><path fill="#2e2e2e" d="M267.075 152.367v2.08h9.18v-2.08zm0-16.12v2.08h9.18v-2.08zm0 7.28v2.08h8.66v-2.08zm.99-7.28h-2.21v18.2h2.21z"></path><rect width="10.4" height="18.2" x="-5.2" y="-9.1" fill="none" rx="0" ry="0" transform="translate(271.56 145.85)"></rect><path fill="#2e2e2e" d="M280.415 142.487h-2.34l5.72 12.87 5.72-12.87h-2.34l-3.38 8.45z"></path><rect width="11.44" height="12.87" x="-5.72" y="-6.43" fill="none" rx="0" ry="0" transform="translate(284.3 149.42)"></rect><path fill="#2e2e2e" d="M296.095 154.707q1.92 0 3.34-.77 1.42-.76 2.35-2.27l-1.69-1.07q-.65 1.09-1.58 1.63-.94.53-2.16.53-1.22 0-2.08-.52-.86-.52-1.3-1.51-.44-.99-.44-2.39.02-1.38.48-2.33.45-.95 1.3-1.45.84-.51 2.04-.51 1.01 0 1.77.44.75.44 1.18 1.22.43.78.43 1.85 0 .18-.08.45-.08.28-.15.41l.83-1.2h-8.58v1.77h10.22q0-.05.01-.25.01-.19.01-.37 0-1.9-.67-3.28-.68-1.38-1.94-2.12-1.26-.74-3.03-.74-1.77 0-3.11.78-1.34.78-2.08 2.18-.74 1.41-.74 3.28 0 1.85.72 3.25.71 1.4 2 2.2 1.29.79 2.95.79"></path><rect width="11.57" height="12.48" x="-5.79" y="-6.24" fill="none" rx="0" ry="0" transform="translate(296.71 148.97)"></rect><path fill="#2e2e2e" d="M306.935 154.447v-11.96h-2.08v11.96zm3.62-9.67 1.14-1.72q-.47-.49-1.03-.66-.56-.17-1.21-.17-.83 0-1.63.65-.81.65-1.32 1.75-.5 1.11-.5 2.54h.93q0-.86.17-1.53.17-.68.61-1.07.44-.39 1.22-.39.52 0 .86.14.34.15.76.46"></path><rect width="6.84" height="12.22" x="-3.42" y="-6.11" fill="none" rx="0" ry="0" transform="translate(308.77 148.84)"></rect><path fill="#2e2e2e" d="m315.465 160.167 7.8-17.68h-2.34l-3.69 9.26.86.1-3.8-9.36h-2.47l4.58 10.27-3.28 7.41z"></path><rect width="11.44" height="17.68" x="-5.72" y="-8.84" fill="none" rx="0" ry="0" transform="translate(318.05 151.83)"></rect><path fill="#2e2e2e" d="m329.325 157.147-1.15 1.72q.21.26.67.56.45.3 1.09.52.64.22 1.31.22.91 0 1.65-.25.74-.24 1.26-.76t.8-1.3q.27-.78.27-1.85v-19.76h-2.08v19.5q0 1.27-.59 1.81-.58.53-1.18.53-.7 0-1.23-.25-.54-.24-.82-.69"></path><rect width="7.05" height="23.92" x="-3.52" y="-11.96" fill="none" rx="0" ry="0" transform="translate(332.2 148.7)"></rect><path fill="#2e2e2e" d="M338.215 148.467q0 1.79.82 3.21t2.22 2.22q1.41.81 3.15.81 1.77 0 3.16-.81 1.39-.8 2.21-2.22.82-1.42.82-3.21 0-1.82-.82-3.22-.82-1.41-2.21-2.21-1.39-.81-3.16-.81-1.74 0-3.15.81-1.4.8-2.22 2.21-.82 1.4-.82 3.22m2.11 0q0-1.25.53-2.22.53-.98 1.45-1.52.93-.55 2.1-.55t2.09.55q.92.54 1.46 1.52.53.97.53 2.22 0 1.25-.53 2.21-.54.96-1.46 1.52-.92.56-2.09.56t-2.1-.56q-.92-.56-1.45-1.52-.53-.96-.53-2.21"></path><rect width="12.38" height="12.48" x="-6.19" y="-6.24" fill="none" rx="0" ry="0" transform="translate(344.9 148.97)"></rect><path fill="#2e2e2e" d="M355.535 149.767v-7.28h-2.08v7.54q0 2.13 1.11 3.41 1.12 1.27 2.99 1.27 1.2 0 2.08-.53.89-.54 1.49-1.6v1.87h2.08v-11.96h-2.08v7.28q0 .88-.38 1.56t-1.07 1.05q-.69.38-1.6.38-1.24 0-1.89-.78-.65-.78-.65-2.21"></path><rect width="9.75" height="12.22" x="-4.88" y="-6.11" fill="none" rx="0" ry="0" transform="translate(358.83 149.1)"></rect><path fill="#2e2e2e" d="M369.185 154.447v-11.96h-2.08v11.96zm3.61-9.67 1.14-1.72q-.46-.49-1.02-.66-.56-.17-1.21-.17-.83 0-1.64.65-.81.65-1.31 1.75-.51 1.11-.51 2.54h.94q0-.86.16-1.53.17-.68.62-1.07.44-.39 1.22-.39.52 0 .86.14.33.15.75.46"></path><rect width="6.83" height="12.22" x="-3.42" y="-6.11" fill="none" rx="0" ry="0" transform="translate(371.02 148.84)"></rect><path fill="#2e2e2e" d="M383.685 147.167v7.28h2.08v-7.54q0-2.16-1.1-3.42-1.11-1.26-3-1.26-1.17 0-2.07.52-.9.52-1.5 1.61v-1.87h-2.08v11.96h2.08v-7.28q0-.88.38-1.56t1.07-1.05q.69-.38 1.6-.38 1.24 0 1.89.75.65.76.65 2.24"></path><rect width="9.75" height="12.22" x="-4.88" y="-6.11" fill="none" rx="0" ry="0" transform="translate(381.39 148.84)"></rect><path fill="#2e2e2e" d="M394.295 154.707q1.93 0 3.34-.77 1.42-.76 2.36-2.27l-1.69-1.07q-.65 1.09-1.59 1.63-.94.53-2.16.53-1.22 0-2.08-.52-.86-.52-1.3-1.51-.44-.99-.44-2.39.03-1.38.48-2.33.46-.95 1.3-1.45.85-.51 2.04-.51 1.02 0 1.77.44t1.18 1.22q.43.78.43 1.85 0 .18-.08.45-.07.28-.15.41l.83-1.2h-8.58v1.77h10.22q0-.05.01-.25.01-.19.01-.37 0-1.9-.67-3.28-.68-1.38-1.94-2.12-1.26-.74-3.03-.74-1.77 0-3.11.78-1.33.78-2.08 2.18-.74 1.41-.74 3.28 0 1.85.72 3.25.71 1.4 2 2.2 1.29.79 2.95.79"></path><rect width="11.57" height="12.48" x="-5.79" y="-6.24" fill="none" rx="0" ry="0" transform="translate(394.91 148.97)"></rect><path fill="#2e2e2e" d="m404.745 160.167 7.8-17.68h-2.34l-3.69 9.26.86.1-3.8-9.36h-2.47l4.58 10.27-3.28 7.41z"></path><rect width="11.44" height="17.68" x="-5.72" y="-8.84" fill="none" rx="0" ry="0" transform="translate(407.32 151.83)"></rect><path fill="#2e2e2e" d="M424.175 143.607v1.22h2.93q1.64 0 2.85-.47 1.21-.47 1.89-1.38.67-.91.67-2.18 0-1.56-.67-2.56-.68-1-1.89-1.5-1.21-.49-2.85-.49h-4.68v18.2h4.94q1.77 0 3.16-.59 1.39-.58 2.21-1.76.82-1.19.82-2.98 0-1.25-.47-2.16-.46-.91-1.31-1.49-.84-.59-1.96-.87-1.12-.29-2.45-.29h-3.19v1.22h3.19q.89 0 1.62.22.72.22 1.26.67.53.44.82 1.09.28.65.28 1.48 0 1.12-.51 1.9-.5.78-1.4 1.19-.9.42-2.07.42h-2.73v-14.3h2.47q1.38 0 2.29.71.91.72.91 2.02 0 .86-.41 1.46-.42.59-1.15.91-.73.31-1.64.31z"></path><rect width="11.13" height="18.2" x="-5.57" y="-9.1" fill="none" rx="0" ry="0" transform="translate(428.49 145.85)"></rect><path fill="#2e2e2e" d="M441.435 154.707q1.92 0 3.34-.77 1.42-.76 2.35-2.27l-1.69-1.07q-.65 1.09-1.58 1.63-.94.53-2.16.53-1.22 0-2.08-.52-.86-.52-1.3-1.51-.44-.99-.44-2.39.02-1.38.48-2.33.45-.95 1.3-1.45.84-.51 2.04-.51 1.01 0 1.77.44.75.44 1.18 1.22.43.78.43 1.85 0 .18-.08.45-.08.28-.15.41l.83-1.2h-8.58v1.77h10.22q0-.05.01-.25.01-.19.01-.37 0-1.9-.67-3.28-.68-1.38-1.94-2.12-1.26-.74-3.03-.74-1.77 0-3.11.78-1.34.78-2.08 2.18-.74 1.41-.74 3.28 0 1.85.72 3.25.71 1.4 2 2.2 1.29.79 2.95.79"></path><rect width="11.57" height="12.48" x="-5.79" y="-6.24" fill="none" rx="0" ry="0" transform="translate(442.05 148.97)"></rect><path fill="#2e2e2e" d="M451.495 155.227h-2.1q0 1.53.75 2.72.75 1.18 2.09 1.83 1.34.65 3.08.65 1.51 0 2.86-.7 1.36-.7 2.21-2.1.86-1.39.86-3.44v-11.7h-2.08v11.7q0 1.51-.58 2.46-.59.95-1.47 1.39-.89.44-1.8.44-1.17 0-2.02-.46-.86-.45-1.33-1.19-.47-.74-.47-1.6m-2.34-6.76q0 1.92.81 3.33.8 1.4 2.16 2.16 1.35.75 2.96.75 1.51 0 2.63-.75 1.11-.76 1.75-2.16.64-1.41.64-3.33 0-1.95-.64-3.34t-1.75-2.15q-1.12-.75-2.63-.75-1.61 0-2.96.75-1.36.76-2.16 2.15-.81 1.39-.81 3.34m2.11 0q0-1.38.56-2.34t1.49-1.46q.94-.49 2.03-.49.68 0 1.35.29.68.28 1.24.83.56.54.89 1.34.34.79.34 1.83 0 1.38-.57 2.34t-1.46 1.46q-.88.49-1.79.49-1.09 0-2.03-.49-.93-.5-1.49-1.46-.56-.96-.56-2.34"></path><rect width="12.09" height="18.2" x="-6.04" y="-9.1" fill="none" rx="0" ry="0" transform="translate(455.7 151.83)"></rect><path fill="#2e2e2e" d="M465.015 137.547q0 .57.43 1 .43.43 1 .43.6 0 1.02-.43.41-.43.41-1 0-.6-.41-1.01-.42-.42-1.02-.42-.57 0-1 .42-.43.41-.43 1.01m2.47 4.94h-2.08v11.96h2.08z"></path><rect width="2.86" height="18.33" x="-1.43" y="-9.16" fill="none" rx="0" ry="0" transform="translate(466.94 145.78)"></rect><path fill="#2e2e2e" d="M479.445 147.167v7.28h2.08v-7.54q0-2.16-1.1-3.42-1.11-1.26-3.01-1.26-1.17 0-2.06.52-.9.52-1.5 1.61v-1.87h-2.08v11.96h2.08v-7.28q0-.88.38-1.56t1.06-1.05q.69-.38 1.6-.38 1.25 0 1.9.75.65.76.65 2.24"></path><rect width="9.75" height="12.22" x="-4.88" y="-6.11" fill="none" rx="0" ry="0" transform="translate(477.15 148.84)"></rect><path fill="#2e2e2e" d="m485.925 150.777-1.64 1.02q.34.7 1 1.38.66.67 1.62 1.1.97.43 2.16.43 1.85 0 2.98-1.04t1.13-2.6q0-1.07-.51-1.74-.5-.68-1.36-1.16-.86-.48-1.9-.9-.62-.26-1.2-.54-.57-.29-.93-.65-.37-.37-.37-.83 0-.6.47-.89.47-.28 1.12-.28.94 0 1.68.44t1.23 1.12l1.67-1.07q-.37-.68-1.02-1.2-.65-.52-1.49-.83-.85-.31-1.81-.31-.96 0-1.86.34-.9.34-1.46 1.04-.55.7-.55 1.77 0 1.04.53 1.72.53.69 1.32 1.12.8.43 1.58.74.7.26 1.32.56.63.3 1.03.73t.4 1.05q0 .71-.5 1.11-.51.4-1.39.4-.73 0-1.34-.27-.61-.27-1.08-.74-.47-.47-.83-1.02"></path><rect width="8.89" height="12.48" x="-4.45" y="-6.24" fill="none" rx="0" ry="0" transform="translate(489.23 148.97)"></rect><path fill="#2e2e2e" d="M499.155 136.247h-2.6l.52 13h1.56zm-2.73 17.16q0 .57.43 1 .43.43 1 .43.6 0 1.01-.43.42-.43.42-1 0-.6-.42-1.01-.41-.42-1.01-.42-.57 0-1 .42-.43.41-.43 1.01"></path><rect width="2.86" height="18.59" x="-1.43" y="-9.29" fill="none" rx="0" ry="0" transform="translate(498.36 146.04)"></rect><path fill="#b8b8b8" d="M282.254 1.574c19.192 0 36.176 14.436 44.965 26.834l60.548 89.209h-134.81l-68.234-.043c-15.498 0-28.49-11.04-31.59-25.645h-16.984c-15.54 0-28.533-11.04-31.633-25.646h-15.71c-15.54 0-28.575-11.04-31.633-25.646H37.982c-17.834 0-32.355-14.521-32.355-32.355V1.616zM37.939 27.219h131.796v13.375H71.1a19.107 19.107 0 0 0 17.664 12.271h105.003V66.24h-75.324a19.107 19.107 0 0 0 17.706 12.271h86.406v13.375H167.06a19.107 19.107 0 0 0 17.706 12.271l68.19.042h109.547l-46.281-68.148c-5.52-7.855-18.895-21.102-33.968-21.102H20.234a19.107 19.107 0 0 0 17.705 12.27" opacity=".32"></path><path fill="#000000" d="M201.085 104.497h-11.77v-79.38h18.03q6.05 0 11.72 1.19 5.67 1.18 10.1 3.99 4.43 2.81 7.02 7.45 2.59 4.65 2.59 11.45 0 7.89-3.67 13.72-3.67 5.83-11.12 8.96l18.9 32.62h-13.94l-15.98-30.03q-1.84.11-4.48.17-2.65.05-4.38.05h-3.02zm0-69.34v29.7h7.67q5.94 0 9.56-1.51 3.61-1.51 5.56-3.83 1.94-2.33 2.64-5.08.71-2.75.71-5.13 0-5.29-2.43-8.37-2.43-3.08-6.7-4.43-4.27-1.35-9.77-1.35z" paint-order="stroke"></path><rect width="53.57" height="79.38" x="-26.79" y="-39.69" fill="none" rx="0" ry="0" transform="translate(216.6 65.3)"></rect><path fill="#000000" d="M268.695 104.497h-12.1v-79.38h12.1z" paint-order="stroke"></path><rect width="12.1" height="79.38" x="-6.05" y="-39.69" fill="none" rx="0" ry="0" transform="translate(263.14 65.3)"></rect><path fill="#000000" d="M306.705 104.497h-19.76v-79.38h19.12q10.69 0 18.19 2.37 7.51 2.38 12.37 6.32 4.86 3.94 7.61 8.97 2.76 5.02 3.84 10.36 1.08 5.35 1.08 10.32 0 7.45-2.11 14.74-2.1 7.29-6.96 13.23-4.86 5.94-13.02 9.5-8.15 3.57-20.36 3.57m-7.66-68.8v58.11h8.96q7.99 0 13.45-2.49 5.45-2.48 8.74-6.75 3.3-4.26 4.76-9.61 1.45-5.35 1.45-10.96 0-7.67-2.7-14.1-2.7-6.42-8.91-10.31-6.21-3.89-16.79-3.89z" paint-order="stroke"></path><rect width="62.21" height="79.38" x="-31.11" y="-39.69" fill="none" rx="0" ry="0" transform="translate(318.55 65.3)"></rect><path fill="#000000" d="M399.485 104.497h-38.34v-79.38h34.77v10.58h-22.79v21.93h18.36v10.8h-18.36v25.38h26.36z" paint-order="stroke"></path><rect width="38.34" height="79.38" x="-19.17" y="-39.69" fill="none" rx="0" ry="0" transform="translate(380.81 65.3)"></rect><path fill="#000000" d="M448.185 105.577q-8.1 0-15.28-2.81t-12.69-8.15q-5.51-5.35-8.69-12.91-3.19-7.56-3.19-17.06 0-9.62 3.19-17.18 3.18-7.56 8.75-12.85 5.56-5.29 12.74-8.04 7.18-2.76 15.17-2.76 8 0 15.18 2.76 7.18 2.75 12.74 8.04 5.56 5.29 8.75 12.85 3.19 7.56 3.19 17.18 0 9.5-3.19 17.06-3.19 7.56-8.69 12.91-5.51 5.34-12.69 8.15-7.19 2.81-15.29 2.81m0-10.91q7.35 0 13.5-3.46 6.16-3.45 9.83-10.09 3.67-6.65 3.67-16.37 0-9.82-3.67-16.47-3.67-6.64-9.77-10.04-6.1-3.4-13.56-3.4-7.45 0-13.55 3.4-6.1 3.4-9.77 10.04-3.68 6.65-3.68 16.47 0 9.72 3.78 16.37 3.78 6.64 9.94 10.09 6.16 3.46 13.28 3.46" paint-order="stroke"></path><rect width="79.71" height="81.76" x="-39.85" y="-40.88" fill="none" rx="0" ry="0" transform="translate(448.69 65.2)"></rect><path fill="#000000" d="M561.375 104.497h-1.62l-46.44-51.41.32 8.64v42.77h-12.09v-79.49h1.51l46.65 52.06-.43-9.08v-42.87h12.1z" paint-order="stroke"></path><rect width="59.83" height="79.49" x="-29.91" y="-39.74" fill="none" rx="0" ry="0" transform="translate(531.96 65.25)"></rect></svg></svg>